<svg width="19" height="19" viewBox="0 0 19 19" fill="none" xmlns="http://www.w3.org/2000/svg">
<path d="M14.3583 10.9105C14.1611 11.1017 14.0704 11.3781 14.1154 11.6493L14.7925 15.3964C14.8496 15.714 14.7155 16.0354 14.4497 16.219C14.1893 16.4094 13.8427 16.4322 13.5586 16.2799L10.1855 14.5206C10.0682 14.4581 9.93796 14.4246 9.80468 14.4208H9.59828C9.52669 14.4315 9.45662 14.4543 9.39265 14.4894L6.01872 16.2571C5.85192 16.3408 5.66305 16.3705 5.47797 16.3408C5.0271 16.2555 4.72627 15.826 4.80014 15.3728L5.47797 11.6257C5.52291 11.3523 5.43228 11.0743 5.23502 10.8801L2.48485 8.21439C2.25484 7.99124 2.17487 7.65613 2.27998 7.35377C2.38203 7.05216 2.6425 6.83206 2.95705 6.78255L6.74225 6.23343C7.03013 6.20372 7.28299 6.02855 7.41246 5.7696L9.08039 2.34994C9.11999 2.27378 9.17102 2.20371 9.23271 2.1443L9.30125 2.09099C9.33705 2.05139 9.37818 2.01864 9.42387 1.99198L9.50689 1.96152L9.63636 1.9082H9.957C10.2434 1.93791 10.4955 2.10927 10.6272 2.36517L12.3172 5.7696C12.4391 6.01865 12.6759 6.19154 12.9494 6.23343L16.7346 6.78255C17.0544 6.82825 17.3218 7.04912 17.4276 7.35377C17.5274 7.65917 17.4413 7.99428 17.2068 8.21439L14.3583 10.9105Z" fill="#F6B76F" fill-opacity="0.5"/>
</svg>
