<svg width="34" height="34" viewBox="0 0 34 34" fill="none" xmlns="http://www.w3.org/2000/svg">
<path d="M17.007 2.83398C20.8036 2.83398 23.9249 5.81736 24.0833 9.59761H24.0463C24.0508 9.70749 24.0296 9.81691 23.9846 9.91732H24.2058C25.9299 9.91732 27.7353 11.1123 28.4592 13.997L28.5378 14.3374L29.6271 23.1132C30.411 28.7105 27.3487 31.0643 23.1713 31.164L22.8912 31.1673H11.1471C6.90168 31.1673 3.63027 29.6203 4.34956 23.494L4.39861 23.1132L5.50041 14.3374C6.0437 11.2308 7.86761 10.0055 9.625 9.92194L9.81993 9.91732H9.93067C9.912 9.81156 9.912 9.70337 9.93067 9.59761C10.0891 5.81736 13.2104 2.83398 17.007 2.83398ZM12.8874 14.6338C12.1959 14.6338 11.6354 15.2108 11.6354 15.9225C11.6354 16.6342 12.1959 17.2111 12.8874 17.2111C13.5789 17.2111 14.1394 16.6342 14.1394 15.9225L14.1297 15.7608C14.0524 15.1254 13.5257 14.6338 12.8874 14.6338ZM21.0882 14.6338C20.3968 14.6338 19.8362 15.2108 19.8362 15.9225C19.8362 16.6342 20.3968 17.2111 21.0882 17.2111C21.7797 17.2111 22.3403 16.6342 22.3403 15.9225C22.3403 15.2108 21.7797 14.6338 21.0882 14.6338ZM16.9515 4.67903C14.2257 4.67903 12.0159 6.88115 12.0159 9.59761C12.0346 9.70337 12.0346 9.81156 12.0159 9.91732H21.9487C21.9093 9.81524 21.8884 9.70698 21.887 9.59761C21.887 6.88115 19.6773 4.67903 16.9515 4.67903Z" fill="white"/>
</svg>
